HIERARCHY
ROOT newVegas:Hips
{
	OFFSET 0.000000 96.479958 0.000000
	CHANNELS 6 Xposition Yposition Zposition Xrotation Yrotation Zrotation
	JOINT newVegas:Pelvis
	{
		OFFSET 0.000000 0.000000 0.000000
		CHANNELS 3 Xrotation Yrotation Zrotation
		JOINT newVegas:LeftUpLeg
		{
			OFFSET 18.735201 -5.666702 -4.541200
			CHANNELS 3 Xrotation Yrotation Zrotation
			JOINT newVegas:LeftLeg
			{
				OFFSET -0.021200 -31.938179 0.493100
				CHANNELS 3 Xrotation Yrotation Zrotation
				JOINT newVegas:LeftFoot
				{
					OFFSET 0.021200 -31.938179 -4.336299
					CHANNELS 3 Xrotation Yrotation Zrotation
					JOINT newVegas:LeftToeBase
					{
						OFFSET 0.943001 -26.722000 15.023500
						CHANNELS 3 Xrotation Yrotation Zrotation
						End Site
						{
							OFFSET 0.000000 30.670183 0.000000
						}
					}
				}
				JOINT newVegas:Left_PantLeg
				{
					OFFSET 0.663870 -9.044666 -1.108900
					CHANNELS 3 Xrotation Yrotation Zrotation
					End Site
					{
						OFFSET 1.415995 20.635357 0.000000
					}
				}
			}
		}
		JOINT newVegas:RightUpLeg
		{
			OFFSET -18.735201 -5.666702 -4.541200
			CHANNELS 3 Xrotation Yrotation Zrotation
			JOINT newVegas:RightLeg
			{
				OFFSET 0.018946 -31.938133 0.493100
				CHANNELS 3 Xrotation Yrotation Zrotation
				JOINT newVegas:RightFoot
				{
					OFFSET -0.018946 -31.938126 -4.336299
					CHANNELS 3 Xrotation Yrotation Zrotation
					JOINT newVegas:RightToeBase
					{
						OFFSET -0.943001 -26.722004 15.023500
						CHANNELS 3 Xrotation Yrotation Zrotation
						End Site
						{
							OFFSET 0.000000 30.670187 0.000000
						}
					}
				}
				JOINT newVegas:Right_PantLeg
				{
					OFFSET -0.661674 -9.044716 -1.108900
					CHANNELS 3 Xrotation Yrotation Zrotation
					End Site
					{
						OFFSET -1.415958 20.635269 0.000000
					}
				}
			}
		}
	}
	JOINT newVegas:Spine
	{
		OFFSET 0.000000 10.199997 -0.299500
		CHANNELS 3 Xrotation Yrotation Zrotation
		JOINT newVegas:Spine1
		{
			OFFSET 0.000000 11.900002 -1.516600
			CHANNELS 3 Xrotation Yrotation Zrotation
			JOINT newVegas:Spine2
			{
				OFFSET 0.000000 13.600006 -2.842500
				CHANNELS 3 Xrotation Yrotation Zrotation
				JOINT newVegas:Neck
				{
					OFFSET 0.000000 9.624100 -2.890100
					CHANNELS 3 Xrotation Yrotation Zrotation
					JOINT newVegas:Head
					{
						OFFSET 0.000000 14.068802 -1.351900
						CHANNELS 3 Xrotation Yrotation Zrotation
						JOINT newVegas:Hair_Back
						{
							OFFSET 0.000000 3.231903 -17.524799
							CHANNELS 3 Xrotation Yrotation Zrotation
							End Site
							{
								OFFSET 0.000000 19.849884 0.000000
							}
						}
						JOINT newVegas:Hair_Front
						{
							OFFSET 0.000000 31.260406 4.573800
							CHANNELS 3 Xrotation Yrotation Zrotation
							JOINT newVegas:Hair_Front1
							{
								OFFSET 0.000000 2.284103 11.993300
								CHANNELS 3 Xrotation Yrotation Zrotation
								JOINT newVegas:Hair_Front2
								{
									OFFSET 0.000000 2.284103 11.993300
									CHANNELS 3 Xrotation Yrotation Zrotation
									End Site
									{
										OFFSET 0.000000 12.208862 0.000000
									}
								}
							}
						}
						JOINT newVegas:Jowel
						{
							OFFSET 0.000000 -7.458206 6.864100
							CHANNELS 3 Xrotation Yrotation Zrotation
							End Site
							{
								OFFSET 0.000000 19.849884 0.000000
							}
						}
					}
				}
				JOINT newVegas:LeftShoulder
				{
					OFFSET 15.263000 10.923401 -0.547700
					CHANNELS 3 Xrotation Yrotation Zrotation
					JOINT newVegas:LeftArm
					{
						OFFSET 25.438599 -2.830597 -13.032500
						CHANNELS 3 Xrotation Yrotation Zrotation
						JOINT newVegas:LeftForeArm
						{
							OFFSET 29.960503 0.000000 0.000000
							CHANNELS 3 Xrotation Yrotation Zrotation
							JOINT newVegas:LeftHand
							{
								OFFSET 27.849251 0.000000 0.000000
								CHANNELS 3 Xrotation Yrotation Zrotation
								JOINT newVegas:LeftHandThumb1
								{
									OFFSET 4.487587 -3.305161 6.305391
									CHANNELS 3 Xrotation Yrotation Zrotation
									JOINT newVegas:LeftHandThumb2
									{
										OFFSET 5.480453 -3.164139 3.164143
										CHANNELS 3 Xrotation Yrotation Zrotation
										JOINT newVegas:LeftHandThumb3
										{
											OFFSET 5.159721 -2.978973 2.978967
											CHANNELS 3 Xrotation Yrotation Zrotation
											End Site
											{
												OFFSET 2.494507 5.926697 1.738678
											}
										}
									}
								}
								JOINT newVegas:LeftHandIndex1
								{
									OFFSET 18.578728 -0.527832 5.208049
									CHANNELS 3 Xrotation Yrotation Zrotation
									JOINT newVegas:LeftHandIndex2
									{
										OFFSET 3.192009 0.000000 0.000000
										CHANNELS 3 Xrotation Yrotation Zrotation
										JOINT newVegas:LeftHandIndex3
										{
											OFFSET 3.835129 0.000000 0.000000
											CHANNELS 3 Xrotation Yrotation Zrotation
											End Site
											{
												OFFSET -0.034599 3.816971 0.371180
											}
										}
									}
								}
								JOINT newVegas:LeftHandMiddle1
								{
									OFFSET 18.476105 0.000000 0.000000
									CHANNELS 3 Xrotation Yrotation Zrotation
									JOINT newVegas:LeftHandMiddle2
									{
										OFFSET 3.324875 0.000000 0.000000
										CHANNELS 3 Xrotation Yrotation Zrotation
										JOINT newVegas:LeftHandMiddle3
										{
											OFFSET 4.596550 0.000000 0.000000
											CHANNELS 3 Xrotation Yrotation Zrotation
											End Site
											{
												OFFSET 0.057701 4.578827 0.399218
											}
										}
									}
								}
								JOINT newVegas:LeftHandRing1
								{
									OFFSET 17.732719 0.121887 -4.201567
									CHANNELS 3 Xrotation Yrotation Zrotation
									JOINT newVegas:LeftHandRing2
									{
										OFFSET 2.733170 0.000000 0.000000
										CHANNELS 3 Xrotation Yrotation Zrotation
										JOINT newVegas:LeftHandRing3
										{
											OFFSET 3.178268 0.000000 0.000000
											CHANNELS 3 Xrotation Yrotation Zrotation
											End Site
											{
												OFFSET 0.119102 3.170624 0.185394
											}
										}
									}
								}
								JOINT newVegas:LeftHandPinky1
								{
									OFFSET 15.989624 -0.606689 -7.535461
									CHANNELS 3 Xrotation Yrotation Zrotation
									JOINT newVegas:LeftHandPinky2
									{
										OFFSET 2.538986 0.000000 0.000000
										CHANNELS 3 Xrotation Yrotation Zrotation
										JOINT newVegas:LeftHandPinky3
										{
											OFFSET 2.593102 0.000000 0.000000
											CHANNELS 3 Xrotation Yrotation Zrotation
											End Site
											{
												OFFSET -0.150902 2.584198 0.152708
											}
										}
									}
								}
							}
							JOINT newVegas:Left_Sleeve
							{
								OFFSET 0.267448 -0.649796 0.577675
								CHANNELS 3 Xrotation Yrotation Zrotation
								End Site
								{
									OFFSET 0.000000 15.991241 0.000000
								}
							}
							JOINT newVegas:Left_CapeC
							{
								OFFSET 15.715958 -8.608795 -6.935905
								CHANNELS 3 Xrotation Yrotation Zrotation
								JOINT newVegas:Left_CapeC1
								{
									OFFSET 0.000000 -8.688499 0.000000
									CHANNELS 3 Xrotation Yrotation Zrotation
									End Site
									{
										OFFSET 0.000000 8.688499 0.000000
									}
								}
							}
						}
						JOINT newVegas:Left_CapeB
						{
							OFFSET 26.118385 -8.608795 -7.079235
							CHANNELS 3 Xrotation Yrotation Zrotation
							JOINT newVegas:Left_CapeB1
							{
								OFFSET 0.000000 -8.688499 0.000000
								CHANNELS 3 Xrotation Yrotation Zrotation
								End Site
								{
									OFFSET 0.000000 8.688499 0.000000
								}
							}
						}
						JOINT newVegas:Left_CapeA
						{
							OFFSET 5.115639 -8.608795 -10.395809
							CHANNELS 3 Xrotation Yrotation Zrotation
							JOINT newVegas:Left_CapeA1
							{
								OFFSET 0.000000 -8.688499 0.000000
								CHANNELS 3 Xrotation Yrotation Zrotation
								End Site
								{
									OFFSET 0.000000 8.688499 0.000000
								}
							}
						}
					}
				}
				JOINT newVegas:RightShoulder
				{
					OFFSET -15.263000 10.923401 -0.547700
					CHANNELS 3 Xrotation Yrotation Zrotation
					JOINT newVegas:RightArm
					{
						OFFSET -25.438599 -2.830597 -13.032500
						CHANNELS 3 Xrotation Yrotation Zrotation
						JOINT newVegas:RightForeArm
						{
							OFFSET -29.960503 0.000000 0.000000
							CHANNELS 3 Xrotation Yrotation Zrotation
							JOINT newVegas:RightHand
							{
								OFFSET -27.849251 0.000000 0.000000
								CHANNELS 3 Xrotation Yrotation Zrotation
								JOINT newVegas:RightHandThumb1
								{
									OFFSET -4.487587 -3.305161 6.305391
									CHANNELS 3 Xrotation Yrotation Zrotation
									JOINT newVegas:RightHandThumb2
									{
										OFFSET -5.480453 -3.164139 3.164143
										CHANNELS 3 Xrotation Yrotation Zrotation
										JOINT newVegas:RightHandThumb3
										{
											OFFSET -5.159721 -2.978973 2.978967
											CHANNELS 3 Xrotation Yrotation Zrotation
											End Site
											{
												OFFSET -2.494507 5.926697 1.738678
											}
										}
									}
								}
								JOINT newVegas:RightHandIndex1
								{
									OFFSET -18.578728 -0.527832 5.208049
									CHANNELS 3 Xrotation Yrotation Zrotation
									JOINT newVegas:RightHandIndex2
									{
										OFFSET -3.192009 0.000000 0.000000
										CHANNELS 3 Xrotation Yrotation Zrotation
										JOINT newVegas:RightHandIndex3
										{
											OFFSET -3.835129 0.000000 0.000000
											CHANNELS 3 Xrotation Yrotation Zrotation
											End Site
											{
												OFFSET 0.034599 3.816971 0.371180
											}
										}
									}
								}
								JOINT newVegas:RightHandMiddle1
								{
									OFFSET -18.476105 0.000000 0.000000
									CHANNELS 3 Xrotation Yrotation Zrotation
									JOINT newVegas:RightHandMiddle2
									{
										OFFSET -3.324875 0.000000 0.000000
										CHANNELS 3 Xrotation Yrotation Zrotation
										JOINT newVegas:RightHandMiddle3
										{
											OFFSET -4.596550 0.000000 0.000000
											CHANNELS 3 Xrotation Yrotation Zrotation
											End Site
											{
												OFFSET -0.057701 4.578827 0.399218
											}
										}
									}
								}
								JOINT newVegas:RightHandRing1
								{
									OFFSET -17.732719 0.121887 -4.201567
									CHANNELS 3 Xrotation Yrotation Zrotation
									JOINT newVegas:RightHandRing2
									{
										OFFSET -2.733170 0.000000 0.000000
										CHANNELS 3 Xrotation Yrotation Zrotation
										JOINT newVegas:RightHandRing3
										{
											OFFSET -3.178268 0.000000 0.000000
											CHANNELS 3 Xrotation Yrotation Zrotation
											End Site
											{
												OFFSET -0.119102 3.170624 0.185394
											}
										}
									}
								}
								JOINT newVegas:RightHandPinky1
								{
									OFFSET -15.989624 -0.606689 -7.535461
									CHANNELS 3 Xrotation Yrotation Zrotation
									JOINT newVegas:RightHandPinky2
									{
										OFFSET -2.538986 0.000000 0.000000
										CHANNELS 3 Xrotation Yrotation Zrotation
										JOINT newVegas:RightHandPinky3
										{
											OFFSET -2.593102 0.000000 0.000000
											CHANNELS 3 Xrotation Yrotation Zrotation
											End Site
											{
												OFFSET 0.150902 2.584198 0.152708
											}
										}
									}
								}
							}
							JOINT newVegas:Right_CapeC
							{
								OFFSET -15.715958 -8.608795 -6.935905
								CHANNELS 3 Xrotation Yrotation Zrotation
								JOINT newVegas:Right_CapeC1
								{
									OFFSET 0.000000 -8.688499 0.000000
									CHANNELS 3 Xrotation Yrotation Zrotation
									End Site
									{
										OFFSET 0.000000 8.688499 0.000000
									}
								}
							}
							JOINT newVegas:Right_Sleeve
							{
								OFFSET -0.267448 -0.649994 0.577675
								CHANNELS 3 Xrotation Yrotation Zrotation
								End Site
								{
									OFFSET 0.000000 15.991302 0.000000
								}
							}
						}
						JOINT newVegas:Right_CapeA
						{
							OFFSET -5.115540 -8.608795 -10.395824
							CHANNELS 3 Xrotation Yrotation Zrotation
							JOINT newVegas:Right_CapeA1
							{
								OFFSET 0.000000 -8.688499 0.000000
								CHANNELS 3 Xrotation Yrotation Zrotation
								End Site
								{
									OFFSET 0.000000 8.688499 0.000000
								}
							}
						}
						JOINT newVegas:Right_CapeB
						{
							OFFSET -26.118187 -8.608795 -7.079266
							CHANNELS 3 Xrotation Yrotation Zrotation
							JOINT newVegas:Right_CapeB1
							{
								OFFSET 0.000000 -8.688499 0.000000
								CHANNELS 3 Xrotation Yrotation Zrotation
								End Site
								{
									OFFSET 0.000000 8.688499 0.000000
								}
							}
						}
					}
				}
				JOINT newVegas:Left_Collar
				{
					OFFSET 18.625099 8.655502 8.828100
					CHANNELS 3 Xrotation Yrotation Zrotation
					JOINT newVegas:Left_Collar1
					{
						OFFSET 14.783401 10.540405 -1.259500
						CHANNELS 3 Xrotation Yrotation Zrotation
						End Site
						{
							OFFSET 0.000000 18.199875 0.000000
						}
					}
				}
				JOINT newVegas:Collar_Back
				{
					OFFSET 0.000000 15.630707 -20.132601
					CHANNELS 3 Xrotation Yrotation Zrotation
					End Site
					{
						OFFSET 0.000000 22.523010 0.000000
					}
				}
				JOINT newVegas:Left_Peck
				{
					OFFSET 17.239599 -5.132599 25.482599
					CHANNELS 3 Xrotation Yrotation Zrotation
					End Site
					{
						OFFSET 0.000000 22.523010 0.000000
					}
				}
				JOINT newVegas:Right_Peck
				{
					OFFSET -17.239599 -5.132202 25.482599
					CHANNELS 3 Xrotation Yrotation Zrotation
					End Site
					{
						OFFSET 0.000000 22.523010 0.000000
					}
				}
				JOINT newVegas:Right_Collar
				{
					OFFSET -18.625099 8.655792 8.828100
					CHANNELS 3 Xrotation Yrotation Zrotation
					JOINT newVegas:Right_Collar1
					{
						OFFSET -14.783401 10.539993 -1.259500
						CHANNELS 3 Xrotation Yrotation Zrotation
						End Site
						{
							OFFSET 0.000000 18.199631 0.000000
						}
					}
				}
			}
		}
		JOINT newVegas:Belly
		{
			OFFSET 0.000000 -6.540398 9.014299
			CHANNELS 3 Xrotation Yrotation Zrotation
			End Site
			{
				OFFSET 0.000000 11.566666 0.000000
			}
		}
	}
	JOINT newVegas:ElvisFacialAnim_Joint
	{
		OFFSET 1.000000 -95.330101 -8.825800
		CHANNELS 3 Xrotation Yrotation Zrotation
		End Site
		{
			OFFSET 0.000000 35.315800 0.000000
		}
	}
}
MOTION
Frames: 4
Frame Time: 0.033333
8.328957 18.803993 8.811598 14.485732 -4.814697 61.564525 0.000000 0.000001 0.000002 -75.630575 1.030986 11.681802 114.925815 14.106659 7.202358 8.595247 7.424967 -26.544651 -0.000001 0.000000 0.000001 -0.000000 0.000000 0.000002 -102.641993 -35.774212 12.490937 138.040623 -21.920978 3.979046 46.375280 9.178768 -12.207839 -0.000000 -0.000000 -0.000000 -0.000000 -0.000001 -0.000001 4.874233 -12.085731 9.541107 5.377921 -2.834317 -0.976281 7.484033 -2.659903 -0.588283 1.689064 -0.409963 -1.047452 1.689060 -0.409958 -1.047438 -0.000000 0.000003 -0.000000 1.689093 -0.409953 -1.047435 1.689054 -0.409961 -1.047446 -0.000001 -0.000003 -0.000000 -0.000000 0.000003 -0.000000 -6.499428 -47.003893 -2.931143 -61.669730 -53.950954 -57.915052 -0.000010 -54.234981 -0.000024 33.061285 21.818387 43.423293 -5.404467 -5.534894 24.668516 7.416514 13.559447 3.779026 0.000001 -0.000002 -0.000008 0.366119 -4.238229 1.052566 0.034125 0.632110 -6.180520 0.000000 -0.000001 0.000001 0.088943 -1.422495 0.188385 0.090524 1.026969 -10.074395 -0.000000 0.000000 0.000000 0.137701 3.731628 -3.489186 0.008749 0.320424 -3.128402 -0.000001 -0.000001 -0.000000 0.799482 13.961597 -3.529113 0.007629 0.299213 -2.921094 -0.000000 0.000000 -0.000000 0.000001 0.000003 -0.000003 0.000001 0.000003 -0.000003 -0.000000 0.000003 -0.000003 0.000001 -0.000002 -0.000001 0.000001 -0.000002 -0.000001 0.000001 -0.000002 -0.000001 -0.000000 -0.000001 -0.000002 0.027193 23.732715 1.132029 -59.563880 -52.837777 -8.593296 0.000056 135.326893 -0.000060 37.639725 -28.097747 -17.313116 1.571335 3.499921 -7.678634 7.802580 -15.416791 -4.481850 0.000002 0.000001 0.000001 0.391987 3.398973 -2.717098 0.541428 -2.181311 27.876825 0.000001 -0.000003 -0.000002 -0.122077 1.242362 2.832484 0.156479 -1.198314 14.878819 0.000001 0.000001 0.000005 0.091325 -3.830788 1.615353 0.021556 -0.448114 5.509519 -0.000002 -0.000001 -0.000000 -0.361762 -6.598014 -0.741501 -0.000004 -0.000007 -0.000001 -0.000002 -0.000000 0.000001 0.000002 -0.000003 0.000001 0.000003 0.000001 0.000003 0.000002 -0.000003 -0.000001 -0.000003 0.000003 0.000001 -0.000003 0.000003 0.000002 -0.000003 0.000003 0.000001 -0.000003 0.000004 0.000003 0.000001 -0.000004 0.000002 0.000001 -0.000004 0.000002 0.000001 -0.000004 0.000002 0.000001 -0.000004 0.000002 0.000001 -0.000004 0.000002 0.000001 -0.000004 0.000002 0.000001 -0.000004 0.000002 -0.000000 -0.000000 -0.000003 0.000000 0.000001 0.000002 
8.341476 18.778526 8.776775 14.397885 -4.809537 61.675256 -0.000000 0.000001 0.000001 -75.732434 1.130033 11.520411 114.879875 14.149124 7.222932 8.765802 7.429647 -26.435691 -0.000001 -0.000001 -0.000000 0.000003 0.000001 0.000002 -102.749719 -35.777924 12.344512 138.110113 -22.093715 3.989197 46.414124 9.166969 -12.359600 -0.000000 0.000000 0.000000 -0.000000 -0.000000 -0.000001 5.060832 -12.146854 9.564808 5.355728 -2.826624 -1.031160 7.463699 -2.649414 -0.648752 1.642805 -0.421331 -1.041196 1.642798 -0.421321 -1.041211 -0.000000 0.000000 -0.000000 1.642826 -0.421296 -1.041206 1.642752 -0.421342 -1.041184 0.000001 0.000001 0.000001 -0.000000 0.000000 -0.000000 -6.414862 -46.721359 -2.840651 -62.202505 -53.864501 -58.488699 0.000005 -54.489887 0.000016 33.396381 21.820853 43.178878 -5.404467 -5.534894 24.668516 7.416511 13.559444 3.779020 -0.000000 -0.000003 -0.000005 0.366119 -4.238232 1.052566 0.034125 0.632109 -6.180520 0.000000 -0.000001 0.000000 0.088943 -1.422495 0.188385 0.090524 1.026969 -10.074393 -0.000000 -0.000001 0.000001 0.137701 3.731625 -3.489184 0.008749 0.320422 -3.128404 -0.000000 0.000001 0.000000 0.799482 13.961598 -3.529112 0.007628 0.299217 -2.921096 -0.000000 -0.000002 -0.000000 0.000002 0.000000 -0.000001 0.000002 0.000000 -0.000001 0.000001 0.000000 -0.000001 0.000002 0.000001 -0.000001 0.000002 0.000001 -0.000000 0.000002 0.000001 -0.000001 0.000000 0.000001 -0.000001 -0.001255 23.052749 1.017929 -58.388002 -52.563872 -7.251420 0.000034 135.575020 -0.000042 37.822473 -28.486013 -17.297377 1.571339 3.499923 -7.678630 7.802580 -15.416787 -4.481849 0.000002 -0.000001 0.000001 0.391989 3.398974 -2.717097 0.541429 -2.181309 27.876823 -0.000000 -0.000001 0.000000 -0.122074 1.242362 2.832483 0.156477 -1.198312 14.878823 -0.000001 -0.000000 0.000003 0.091329 -3.830788 1.615353 0.021554 -0.448116 5.509521 -0.000001 0.000001 -0.000000 -0.361759 -6.598008 -0.741501 -0.000003 -0.000005 -0.000001 0.000000 0.000001 0.000001 0.000001 -0.000000 -0.000000 0.000002 0.000001 -0.000001 0.000001 -0.000001 -0.000000 -0.000002 -0.000003 -0.000002 -0.000002 -0.000002 -0.000002 -0.000002 -0.000003 -0.000002 -0.000002 -0.000002 -0.000001 0.000000 -0.000002 -0.000001 0.000000 -0.000002 -0.000001 0.000000 -0.000002 -0.000001 0.000000 -0.000002 -0.000001 0.000000 -0.000002 -0.000001 0.000000 -0.000002 -0.000001 0.000000 -0.000002 -0.000001 -0.000000 -0.000002 0.000002 -0.000000 0.000001 0.000001 
8.347626 18.757668 8.748967 14.321010 -4.773553 61.771466 -0.000000 -0.000000 0.000000 -75.805032 1.196458 11.390602 114.823389 14.171417 7.235759 8.897109 7.416410 -26.394088 0.000001 0.000000 -0.000001 -0.000001 0.000001 0.000001 -102.848606 -35.761723 12.203932 138.170520 -22.275038 4.002632 46.427466 9.192816 -12.526252 -0.000000 -0.000000 0.000000 -0.000000 -0.000000 0.000000 5.207031 -12.220926 9.593581 5.329394 -2.826070 -1.074288 7.438747 -2.646665 -0.696708 1.600913 -0.432656 -1.028996 1.600900 -0.432654 -1.029042 0.000001 -0.000000 -0.000001 1.600923 -0.432719 -1.029021 1.600942 -0.432577 -1.029023 0.000001 0.000002 0.000002 0.000001 -0.000000 -0.000001 -6.239730 -46.460203 -2.576992 -62.645662 -53.758459 -58.929240 0.000008 -54.787768 0.000010 33.582500 21.898090 43.030052 -5.404466 -5.534893 24.668512 7.416513 13.559446 3.779026 0.000001 -0.000002 -0.000003 0.366119 -4.238228 1.052566 0.034125 0.632110 -6.180521 0.000001 -0.000000 0.000000 0.088943 -1.422494 0.188386 0.090524 1.026969 -10.074395 0.000001 -0.000001 0.000001 0.137701 3.731626 -3.489184 0.008749 0.320420 -3.128401 0.000000 0.000001 0.000001 0.799481 13.961598 -3.529112 0.007628 0.299212 -2.921095 0.000000 -0.000002 -0.000000 -0.000002 -0.000003 0.000003 -0.000002 -0.000003 0.000003 -0.000003 -0.000002 0.000003 0.000002 -0.000002 -0.000000 0.000002 -0.000002 0.000000 0.000002 -0.000002 -0.000000 0.000001 -0.000002 -0.000000 -0.031863 22.360141 0.915785 -57.163581 -52.229886 -5.872476 -0.000004 135.788313 -0.000007 38.015904 -28.849326 -17.296107 1.571339 3.499923 -7.678627 7.802580 -15.416789 -4.481851 0.000001 0.000000 0.000003 0.391987 3.398974 -2.717095 0.541431 -2.181314 27.876821 -0.000001 -0.000000 0.000003 -0.122075 1.242361 2.832484 0.156484 -1.198311 14.878819 -0.000000 0.000001 -0.000000 0.091325 -3.830788 1.615354 0.021554 -0.448114 5.509520 -0.000002 -0.000001 -0.000002 -0.361764 -6.598011 -0.741501 -0.000000 -0.000009 -0.000003 -0.000001 -0.000000 0.000000 0.000003 0.000002 0.000002 0.000001 0.000001 0.000006 0.000003 0.000002 0.000004 -0.000001 -0.000001 0.000001 -0.000001 0.000000 0.000001 -0.000001 -0.000001 0.000001 -0.000001 0.000000 0.000002 0.000002 0.000000 -0.000001 0.000002 0.000000 -0.000001 0.000002 0.000000 -0.000001 0.000002 0.000000 -0.000001 0.000002 0.000000 -0.000001 0.000002 0.000000 -0.000001 0.000002 0.000000 -0.000001 0.000001 0.000000 0.000001 -0.000000 -0.000000 0.000000 
8.355515 18.749588 8.735106 14.265702 -4.700973 61.839522 0.000000 0.000000 -0.000000 -75.873587 1.235476 11.292185 114.767628 14.190634 7.239594 8.982407 7.388100 -26.388291 0.000001 0.000000 0.000004 -0.000000 -0.000000 0.000002 -102.957397 -35.733449 12.082331 138.223344 -22.405317 4.008449 46.412771 9.231467 -12.643052 -0.000001 0.000000 -0.000000 0.000001 0.000002 -0.000002 5.295526 -12.279156 9.681289 5.304419 -2.826732 -1.095413 7.414199 -2.645890 -0.721494 1.568917 -0.442530 -1.014349 1.568938 -0.442524 -1.014296 -0.000000 -0.000002 -0.000000 1.568945 -0.442497 -1.014350 1.568900 -0.442558 -1.014330 -0.000000 -0.000003 -0.000000 -0.000000 -0.000002 -0.000000 -6.080531 -46.204153 -2.338834 -63.093941 -53.631748 -59.371201 0.000018 -55.108254 0.000010 33.739584 21.993610 42.915564 -5.404470 -5.534893 24.668511 7.416513 13.559445 3.779026 0.000001 -0.000003 -0.000001 0.366118 -4.238228 1.052566 0.034125 0.632109 -6.180521 0.000000 -0.000001 0.000001 0.088943 -1.422495 0.188385 0.090523 1.026969 -10.074396 -0.000000 -0.000001 0.000001 0.137701 3.731627 -3.489184 0.008750 0.320422 -3.128401 0.000000 0.000003 -0.000001 0.799481 13.961600 -3.529113 0.007629 0.299212 -2.921096 0.000000 -0.000002 -0.000000 0.000001 0.000003 -0.000002 0.000001 0.000003 -0.000002 -0.000000 0.000004 -0.000002 0.000004 -0.000001 0.000001 0.000004 0.000000 0.000001 0.000004 -0.000001 0.000001 0.000003 -0.000000 0.000001 -0.046272 21.601100 0.754205 -55.911047 -51.817701 -4.447082 0.000030 135.994544 -0.000015 38.243438 -29.207463 -17.255440 1.571335 3.499927 -7.678630 7.802578 -15.416794 -4.481851 0.000001 0.000003 0.000003 0.391987 3.398976 -2.717097 0.541430 -2.181311 27.876825 0.000001 0.000002 -0.000000 -0.122076 1.242364 2.832484 0.156480 -1.198315 14.878819 0.000002 0.000000 -0.000002 0.091327 -3.830786 1.615352 0.021555 -0.448119 5.509513 0.000000 -0.000001 0.000000 -0.361764 -6.598008 -0.741500 -0.000003 -0.000004 -0.000002 0.000000 -0.000005 -0.000002 0.000003 0.000000 -0.000001 0.000001 -0.000001 -0.000001 0.000003 0.000000 0.000001 0.000001 0.000003 0.000002 0.000001 0.000004 -0.000000 0.000001 0.000003 0.000002 0.000001 0.000004 0.000001 0.000001 -0.000001 0.000002 0.000001 -0.000001 0.000002 0.000001 -0.000001 0.000002 0.000001 -0.000001 0.000002 0.000001 -0.000001 0.000002 0.000001 -0.000001 0.000002 0.000001 -0.000001 0.000002 0.000000 -0.000001 0.000001 0.000000 0.000000 -0.000000 
